<svg width="348" height="348" viewBox="0 0 348 348" fill="none" xmlns="http://www.w3.org/2000/svg">
<rect width="348" height="348" rx="174" fill="#E2E8F0"/>
<path d="M48 118C48 93.1472 68.1472 73 93 73H255C279.853 73 300 93.1472 300 118V348H48V118Z" fill="black"/>
<path d="M58 119C58 99.67 73.67 84 93 84H255C274.33 84 290 99.67 290 119V348H58V119Z" fill="white"/>
<path d="M140 105.5C140 100.806 143.806 97 148.5 97H198.5C203.194 97 207 100.806 207 105.5C207 110.194 203.194 114 198.5 114H148.5C143.806 114 140 110.194 140 105.5Z" fill="black"/>
<path d="M48 118C48 93.1472 68.1472 73 93 73H255C279.853 73 300 93.1472 300 118V348H48V118Z" fill="black"/>
<path d="M58 119C58 99.67 73.67 84 93 84H255C274.33 84 290 99.67 290 119V348H58V119Z" fill="white"/>
<path d="M140 105.5C140 100.806 143.806 97 148.5 97H198.5C203.194 97 207 100.806 207 105.5C207 110.194 203.194 114 198.5 114H148.5C143.806 114 140 110.194 140 105.5Z" fill="black"/>
<rect x="78" y="248" width="177" height="10" rx="4" fill="#F3F4F6"/>
<rect x="77" y="140" width="193" height="96" rx="12" fill="#F3F4F6"/>
<rect x="78" y="268" width="143" height="8" rx="4" fill="#F3F4F6"/>
<rect x="78" y="282" width="105" height="8" rx="4" fill="#F3F4F6"/>
<path d="M258 228L224 205.143L248.667 211.571V203L270 211.571V224.429L258 218V228Z" fill="white"/>
<path d="M87.5652 170.057L75 165.029V175.714L98.6522 182V173.829L126 180.743L87.5652 160V170.057Z" fill="white"/>
<path d="M194.421 194.024L188.84 178.492C187.823 175.649 186.307 174.037 184.578 173.931C182.866 173.824 181.208 175.246 179.942 177.962L176.554 185.197C175.84 186.725 174.824 187.637 173.718 187.744C172.595 187.871 171.472 187.171 170.562 185.791L170.17 185.197C168.904 183.309 167.335 182.397 165.73 182.588C164.125 182.778 162.752 184.094 161.843 186.237L158.758 193.557C157.652 196.21 157.759 199.286 159.061 201.79C160.363 204.294 162.627 205.8 165.106 205.8H187.859C190.248 205.8 192.477 204.378 193.797 202.002C195.152 199.626 195.366 196.634 194.421 194.024Z" fill="white"/>
<g filter="url(#filter0_d_414_1001)">
<circle cx="274" cy="165" r="50" fill="white"/>
</g>
<path d="M253.806 170.21C252.575 168.769 252.737 166.586 254.294 165.505C260.286 161.342 267.476 159.174 274.829 159.367C282.182 159.56 289.248 162.103 295.014 166.575C296.511 167.737 296.558 169.925 295.253 171.3V171.3C293.948 172.674 291.786 172.711 290.26 171.586C285.748 168.263 280.304 166.378 274.649 166.229C268.993 166.081 263.457 167.677 258.777 170.759C257.194 171.802 255.037 171.652 253.806 170.21V170.21Z" fill="#F3F4F6"/>
<path d="M244.542 160.766C243.181 158.993 243.508 156.437 245.383 155.219C254.068 149.576 264.28 146.66 274.697 146.901C285.114 147.143 295.18 150.53 303.594 156.569C305.411 157.872 305.618 160.441 304.177 162.149V162.149C302.735 163.857 300.191 164.056 298.356 162.779C291.368 157.917 283.079 155.193 274.509 154.994C265.939 154.795 257.533 157.132 250.327 161.665C248.435 162.856 245.903 162.539 244.542 160.766V160.766Z" fill="#F9FAFB"/>
<circle cx="274.775" cy="186.011" r="5.16128" fill="#D1D5DB"/>
<path d="M262.914 179.156C261.765 178.325 261.494 176.702 262.487 175.689C263.8 174.35 265.326 173.231 267.009 172.379C269.459 171.14 272.17 170.505 274.915 170.527C277.661 170.55 280.361 171.229 282.79 172.508C284.459 173.387 285.967 174.532 287.257 175.892C288.234 176.921 287.937 178.539 286.774 179.351V179.351C285.61 180.164 284.024 179.853 282.985 178.888C282.209 178.168 281.34 177.551 280.397 177.054C278.693 176.157 276.799 175.681 274.873 175.665C272.948 175.649 271.046 176.094 269.328 176.964C268.377 177.445 267.498 178.048 266.711 178.755C265.655 179.703 264.064 179.987 262.914 179.156V179.156Z" fill="#E5E7EB"/>
<defs>
<filter id="filter0_d_414_1001" x="208" y="100" width="132" height="132" filterUnits="userSpaceOnUse" color-interpolation-filters="sRGB">
<feFlood flood-opacity="0" result="BackgroundImageFix"/>
<feColorMatrix in="SourceAlpha" type="matrix" values="0 0 0 0 0 0 0 0 0 0 0 0 0 0 0 0 0 0 127 0" result="hardAlpha"/>
<feOffset dy="1"/>
<feGaussianBlur stdDeviation="8"/>
<feComposite in2="hardAlpha" operator="out"/>
<feColorMatrix type="matrix" values="0 0 0 0 0 0 0 0 0 0 0 0 0 0 0 0 0 0 0.05 0"/>
<feBlend mode="normal" in2="BackgroundImageFix" result="effect1_dropShadow_414_1001"/>
<feBlend mode="normal" in="SourceGraphic" in2="effect1_dropShadow_414_1001" result="shape"/>
</filter>
</defs>
</svg>
