<svg width="348" height="348" viewBox="0 0 348 348" fill="none" xmlns="http://www.w3.org/2000/svg">
<g clip-path="url(#clip0_411_1075)">
<rect width="348" height="348" rx="174" fill="#E2E8F0"/>
<path d="M48 118C48 93.1472 68.1472 73 93 73H255C279.853 73 300 93.1472 300 118V348H48V118Z" fill="black"/>
<path d="M58 119C58 99.67 73.67 84 93 84H255C274.33 84 290 99.67 290 119V348H58V119Z" fill="white"/>
<path d="M140 105.5C140 100.806 143.806 97 148.5 97H198.5C203.194 97 207 100.806 207 105.5C207 110.194 203.194 114 198.5 114H148.5C143.806 114 140 110.194 140 105.5Z" fill="black"/>
<g filter="url(#filter0_d_411_1075)">
<path d="M78 336.44V152C78 145.373 83.3726 140 90 140H223.517C226.724 140 229.798 141.284 232.052 143.565L267.535 179.471C269.755 181.718 271 184.748 271 187.906V336.44C271 343.067 265.627 348.44 259 348.44H90C83.3726 348.44 78 343.067 78 336.44Z" fill="white"/>
</g>
<g filter="url(#filter1_d_411_1075)">
<path d="M270.635 182.947L228.431 140.013L228.07 182.233L270.635 182.947Z" fill="#E5E7EB"/>
</g>
<rect x="87.6499" y="261.59" width="144.75" height="6.755" rx="3.3775" fill="#E5E7EB"/>
<rect x="87.6499" y="205.62" width="54.04" height="42.46" rx="4" fill="#E5E7EB"/>
<rect x="87.6499" y="189.215" width="126.415" height="4.825" rx="2.4125" fill="#E5E7EB"/>
<rect x="87.6499" y="177.635" width="129.31" height="4.825" rx="2.4125" fill="#E5E7EB"/>
<rect x="87.6499" y="165.09" width="113.87" height="4.825" rx="2.4125" fill="#E5E7EB"/>
<path d="M217.544 224.116C217.544 250.77 196.934 272.065 171.886 272.065C146.839 272.065 126.229 250.77 126.229 224.116C126.229 197.462 146.839 176.167 171.886 176.167C196.934 176.167 217.544 197.462 217.544 224.116Z" stroke="#333333" stroke-width="8"/>
<rect x="209.324" y="260.23" width="41.1909" height="8" rx="4" transform="rotate(43.9177 209.324 260.23)" fill="#333333"/>
<ellipse opacity="0.4" cx="172.5" cy="224" rx="41.5" ry="44" fill="white"/>
<path d="M169.55 234.78L167.288 201.269C167.132 198.959 168.964 197 171.279 197H171.816C174.096 197 175.914 198.902 175.812 201.18L174.302 234.727C174.245 235.999 173.198 237 171.925 237C170.673 237 169.635 236.03 169.55 234.78Z" fill="#FF0000"/>
<circle cx="172" cy="246" r="5" fill="#FF0000"/>
<path d="M48 118C48 93.1472 68.1472 73 93 73H255C279.853 73 300 93.1472 300 118V348H48V118Z" fill="black"/>
<path d="M58 119C58 99.67 73.67 84 93 84H255C274.33 84 290 99.67 290 119V348H58V119Z" fill="white"/>
<path d="M140 105.5C140 100.806 143.806 97 148.5 97H198.5C203.194 97 207 100.806 207 105.5C207 110.194 203.194 114 198.5 114H148.5C143.806 114 140 110.194 140 105.5Z" fill="black"/>
<g filter="url(#filter2_d_411_1075)">
<path d="M78 336.44V152C78 145.373 83.3726 140 90 140H223.517C226.724 140 229.798 141.284 232.052 143.565L267.535 179.471C269.755 181.718 271 184.748 271 187.906V336.44C271 343.067 265.627 348.44 259 348.44H90C83.3726 348.44 78 343.067 78 336.44Z" fill="white"/>
</g>
<g filter="url(#filter3_d_411_1075)">
<path d="M269 181L231 142.5L230.5 180.5L269 181Z" fill="#E5E7EB"/>
</g>
<rect x="87.6499" y="259" width="144.75" height="6" rx="3" fill="#E5E7EB"/>
<rect x="88" y="206" width="56" height="42" rx="4" fill="#E5E7EB"/>
<rect x="88" y="192" width="101" height="5" rx="2.5" fill="#E5E7EB"/>
<rect x="87.6499" y="180" width="129.31" height="6" rx="3" fill="#E5E7EB"/>
<rect x="87.6499" y="165.09" width="113.87" height="7" rx="3.5" fill="#E5E7EB"/>
<path d="M217.769 224.103C217.769 250.756 197.159 272.052 172.111 272.052C147.064 272.052 126.454 250.756 126.454 224.103C126.454 197.449 147.064 176.154 172.111 176.154C197.159 176.154 217.769 197.449 217.769 224.103Z" stroke="#1E293B" stroke-width="8"/>
<rect x="209.549" y="260.217" width="41.1909" height="8" rx="4" transform="rotate(43.9177 209.549 260.217)" fill="#1E293B"/>
<ellipse opacity="0.6" cx="172.725" cy="223.987" rx="41.5" ry="44" fill="white"/>
<path d="M169.513 230.789L167.366 205.336C167.169 203.003 169.01 201 171.352 201H171.769C174.066 201 175.891 202.931 175.762 205.225L174.328 230.722C174.256 232 173.199 233 171.918 233C170.664 233 169.619 232.039 169.513 230.789Z" fill="#FF0000"/>
<ellipse cx="172" cy="241.808" rx="5" ry="4.80769" fill="#FF0000"/>
</g>
<defs>
<filter id="filter0_d_411_1075" x="62" y="125" width="225" height="240.44" filterUnits="userSpaceOnUse" color-interpolation-filters="sRGB">
<feFlood flood-opacity="0" result="BackgroundImageFix"/>
<feColorMatrix in="SourceAlpha" type="matrix" values="0 0 0 0 0 0 0 0 0 0 0 0 0 0 0 0 0 0 127 0" result="hardAlpha"/>
<feOffset dy="1"/>
<feGaussianBlur stdDeviation="8"/>
<feComposite in2="hardAlpha" operator="out"/>
<feColorMatrix type="matrix" values="0 0 0 0 0 0 0 0 0 0 0 0 0 0 0 0 0 0 0.1 0"/>
<feBlend mode="normal" in2="BackgroundImageFix" result="effect1_dropShadow_411_1075"/>
<feBlend mode="normal" in="SourceGraphic" in2="effect1_dropShadow_411_1075" result="shape"/>
</filter>
<filter id="filter1_d_411_1075" x="224.069" y="140.013" width="50.5659" height="50.9333" filterUnits="userSpaceOnUse" color-interpolation-filters="sRGB">
<feFlood flood-opacity="0" result="BackgroundImageFix"/>
<feColorMatrix in="SourceAlpha" type="matrix" values="0 0 0 0 0 0 0 0 0 0 0 0 0 0 0 0 0 0 127 0" result="hardAlpha"/>
<feOffset dy="4"/>
<feGaussianBlur stdDeviation="2"/>
<feComposite in2="hardAlpha" operator="out"/>
<feColorMatrix type="matrix" values="0 0 0 0 0 0 0 0 0 0 0 0 0 0 0 0 0 0 0.05 0"/>
<feBlend mode="normal" in2="BackgroundImageFix" result="effect1_dropShadow_411_1075"/>
<feBlend mode="normal" in="SourceGraphic" in2="effect1_dropShadow_411_1075" result="shape"/>
</filter>
<filter id="filter2_d_411_1075" x="62" y="125" width="225" height="240.44" filterUnits="userSpaceOnUse" color-interpolation-filters="sRGB">
<feFlood flood-opacity="0" result="BackgroundImageFix"/>
<feColorMatrix in="SourceAlpha" type="matrix" values="0 0 0 0 0 0 0 0 0 0 0 0 0 0 0 0 0 0 127 0" result="hardAlpha"/>
<feOffset dy="1"/>
<feGaussianBlur stdDeviation="8"/>
<feComposite in2="hardAlpha" operator="out"/>
<feColorMatrix type="matrix" values="0 0 0 0 0 0 0 0 0 0 0 0 0 0 0 0 0 0 0.1 0"/>
<feBlend mode="normal" in2="BackgroundImageFix" result="effect1_dropShadow_411_1075"/>
<feBlend mode="normal" in="SourceGraphic" in2="effect1_dropShadow_411_1075" result="shape"/>
</filter>
<filter id="filter3_d_411_1075" x="226.5" y="139.5" width="46.5" height="46.5002" filterUnits="userSpaceOnUse" color-interpolation-filters="sRGB">
<feFlood flood-opacity="0" result="BackgroundImageFix"/>
<feColorMatrix in="SourceAlpha" type="matrix" values="0 0 0 0 0 0 0 0 0 0 0 0 0 0 0 0 0 0 127 0" result="hardAlpha"/>
<feOffset dy="1"/>
<feGaussianBlur stdDeviation="2"/>
<feComposite in2="hardAlpha" operator="out"/>
<feColorMatrix type="matrix" values="0 0 0 0 0 0 0 0 0 0 0 0 0 0 0 0 0 0 0.05 0"/>
<feBlend mode="normal" in2="BackgroundImageFix" result="effect1_dropShadow_411_1075"/>
<feBlend mode="normal" in="SourceGraphic" in2="effect1_dropShadow_411_1075" result="shape"/>
</filter>
<clipPath id="clip0_411_1075">
<rect width="348" height="348" rx="174" fill="white"/>
</clipPath>
</defs>
</svg>
