<svg width="348" height="348" viewBox="0 0 348 348" fill="none" xmlns="http://www.w3.org/2000/svg">
<g clip-path="url(#clip0_406_925)">
<rect width="348" height="348" rx="174" fill="#E2E8F0"/>
<path d="M48 118C48 93.1472 68.1472 73 93 73H255C279.853 73 300 93.1472 300 118V411H48V118Z" fill="black"/>
<path d="M58 119C58 99.67 73.67 84 93 84H255C274.33 84 290 99.67 290 119V411H58V119Z" fill="white"/>
<path d="M140 105.5C140 100.806 143.806 97 148.5 97H198.5C203.194 97 207 100.806 207 105.5V105.5C207 110.194 203.194 114 198.5 114H148.5C143.806 114 140 110.194 140 105.5V105.5Z" fill="black"/>
<g filter="url(#filter0_d_406_925)">
<rect x="34" y="160" width="279" height="64" rx="15" fill="white"/>
</g>
<rect x="52" y="172" width="40" height="40" rx="8" fill="#E5E7EB"/>
<rect x="102" y="178" width="189" height="9" rx="4" fill="#E5E7EB"/>
<rect x="102" y="197" width="134" height="9" rx="4" fill="#E5E7EB"/>
</g>
<defs>
<filter id="filter0_d_406_925" x="18" y="145" width="311" height="96" filterUnits="userSpaceOnUse" color-interpolation-filters="sRGB">
<feFlood flood-opacity="0" result="BackgroundImageFix"/>
<feColorMatrix in="SourceAlpha" type="matrix" values="0 0 0 0 0 0 0 0 0 0 0 0 0 0 0 0 0 0 127 0" result="hardAlpha"/>
<feOffset dy="1"/>
<feGaussianBlur stdDeviation="8"/>
<feComposite in2="hardAlpha" operator="out"/>
<feColorMatrix type="matrix" values="0 0 0 0 0 0 0 0 0 0 0 0 0 0 0 0 0 0 0.1 0"/>
<feBlend mode="normal" in2="BackgroundImageFix" result="effect1_dropShadow_406_925"/>
<feBlend mode="normal" in="SourceGraphic" in2="effect1_dropShadow_406_925" result="shape"/>
</filter>
<clipPath id="clip0_406_925">
<rect width="348" height="348" rx="174" fill="white"/>
</clipPath>
</defs>
</svg>
